<?xml version="1.0" encoding="UTF-8"?>
<svg version="1.1" xmlns="http://www.w3.org/2000/svg" width="67" height="265">
<path d="M0 0 C22.11 0 44.22 0 67 0 C67 87.45 67 174.9 67 265 C44.89 265 22.78 265 0 265 C0 177.55 0 90.1 0 0 Z " fill="#F5F5F5" transform="translate(0,0)"/>
<path d="M0 0 C0.66 0.66 1.32 1.32 2 2 C1.44444444 6.55555556 1.44444444 6.55555556 0 8 C-2.33157492 8.34541851 -4.66508361 8.67794257 -7 9 C-7.99 9.33 -8.98 9.66 -10 10 C-10 11.32 -10 12.64 -10 14 C-8.91460937 14.17015625 -7.82921875 14.3403125 -6.7109375 14.515625 C-5.26549711 14.75966039 -3.82019144 15.00449462 -2.375 15.25 C-1.66214844 15.35957031 -0.94929688 15.46914063 -0.21484375 15.58203125 C4.67700475 16.43473879 8.03782766 17.8350215 12 21 C14.50304378 24.75456567 14.45280074 26.54745934 14 31 C11.88391379 35.40145931 9.71040113 37.76303335 5.0703125 39.48046875 C1.8219211 40.29563112 -1.4295197 40.57149042 -4.765625 40.7890625 C-7.1698567 40.93125035 -7.1698567 40.93125035 -10 42 C-10 43.32 -10 44.64 -10 46 C-8.91460937 46.17015625 -7.82921875 46.3403125 -6.7109375 46.515625 C-5.26549711 46.75966039 -3.82019144 47.00449462 -2.375 47.25 C-1.66214844 47.35957031 -0.94929688 47.46914063 -0.21484375 47.58203125 C4.67700475 48.43473879 8.03782766 49.8350215 12 53 C14.50304378 56.75456567 14.45280074 58.54745934 14 63 C11.93466605 67.29589461 9.81515477 69.72982751 5.28125 71.41015625 C0.26886928 72.70616565 -4.87118859 73.34443764 -10 74 C-10 75.32 -10 76.64 -10 78 C-8.91460937 78.17015625 -7.82921875 78.3403125 -6.7109375 78.515625 C-5.26549711 78.75966039 -3.82019144 79.00449462 -2.375 79.25 C-1.66214844 79.35957031 -0.94929688 79.46914062 -0.21484375 79.58203125 C4.67700475 80.43473879 8.03782766 81.8350215 12 85 C14.50304378 88.75456567 14.45280074 90.54745934 14 95 C12.07116814 99.17913569 10.63158306 100.68420847 6.5 102.75 C1.14464298 104.46411995 -4.44650427 105.21325477 -10 106 C-10 107.32 -10 108.64 -10 110 C-8.91460937 110.17015625 -7.82921875 110.3403125 -6.7109375 110.515625 C-5.26549711 110.75966039 -3.82019144 111.00449462 -2.375 111.25 C-1.66214844 111.35957031 -0.94929688 111.46914062 -0.21484375 111.58203125 C4.67700475 112.43473879 8.03782766 113.8350215 12 117 C14.50304378 120.75456567 14.45280074 122.54745934 14 127 C12.07116814 131.17913569 10.63158306 132.68420847 6.5 134.75 C1.14464298 136.46411995 -4.44650427 137.21325477 -10 138 C-10 139.32 -10 140.64 -10 142 C-8.91460937 142.17015625 -7.82921875 142.3403125 -6.7109375 142.515625 C-5.26549711 142.75966039 -3.82019144 143.00449462 -2.375 143.25 C-1.66214844 143.35957031 -0.94929688 143.46914062 -0.21484375 143.58203125 C4.67700475 144.43473879 8.03782766 145.8350215 12 149 C14.50304378 152.75456567 14.45280074 154.54745934 14 159 C12.07116814 163.17913569 10.63158306 164.68420847 6.5 166.75 C1.14464298 168.46411995 -4.44650427 169.21325477 -10 170 C-10 171.32 -10 172.64 -10 174 C-8.91460937 174.17015625 -7.82921875 174.3403125 -6.7109375 174.515625 C-5.26549711 174.75966039 -3.82019144 175.00449462 -2.375 175.25 C-1.66214844 175.35957031 -0.94929688 175.46914062 -0.21484375 175.58203125 C4.67700475 176.43473879 8.03782766 177.8350215 12 181 C14.50304378 184.75456567 14.45280074 186.54745934 14 191 C12.07116814 195.17913569 10.63158306 196.68420847 6.5 198.75 C1.14464298 200.46411995 -4.44650427 201.21325477 -10 202 C-10 203.32 -10 204.64 -10 206 C-8.91460937 206.17015625 -7.82921875 206.3403125 -6.7109375 206.515625 C-5.26549711 206.75966039 -3.82019144 207.00449462 -2.375 207.25 C-1.66214844 207.35957031 -0.94929688 207.46914062 -0.21484375 207.58203125 C4.67700475 208.43473879 8.03782766 209.8350215 12 213 C14.50304378 216.75456567 14.45280074 218.54745934 14 223 C12.07116814 227.17913569 10.63158306 228.68420847 6.5 230.75 C1.14464298 232.46411995 -4.44650427 233.21325477 -10 234 C-10 235.32 -10 236.64 -10 238 C-9.30132812 238.12117187 -8.60265625 238.24234375 -7.8828125 238.3671875 C-6.51769531 238.61855469 -6.51769531 238.61855469 -5.125 238.875 C-3.76761719 239.11863281 -3.76761719 239.11863281 -2.3828125 239.3671875 C0 240 0 240 2 242 C1.44444444 246.55555556 1.44444444 246.55555556 0 248 C-6.00751643 248.63237015 -9.28367506 247.74519777 -14.3359375 244.484375 C-17.31732875 241.82491802 -17.94641716 239.49117607 -18.375 235.5625 C-17.92808078 231.31676744 -17.07467854 229.91285335 -14 227 C-9.5759898 224.05065987 -5.54592225 223.54973323 -0.3671875 223.2109375 C1.85584752 223.01284527 3.85557765 222.60280997 6 222 C6 220.68 6 219.36 6 218 C4.62328125 217.87044922 4.62328125 217.87044922 3.21875 217.73828125 C-10.71500546 216.1429248 -10.71500546 216.1429248 -16 211 C-18.2629029 207.26096508 -18.45922177 204.36260677 -18 200 C-15.45932299 195.70039275 -12.64913942 193.72190349 -8 192 C-5.45377235 191.62128893 -2.93566542 191.37896877 -0.3671875 191.2109375 C1.85584752 191.01284527 3.85557765 190.60280997 6 190 C6 188.68 6 187.36 6 186 C4.62328125 185.87044922 4.62328125 185.87044922 3.21875 185.73828125 C-10.71500546 184.1429248 -10.71500546 184.1429248 -16 179 C-18.2629029 175.26096508 -18.45922177 172.36260677 -18 168 C-15.45932299 163.70039275 -12.64913942 161.72190349 -8 160 C-5.45377235 159.62128893 -2.93566542 159.37896877 -0.3671875 159.2109375 C1.85584752 159.01284527 3.85557765 158.60280997 6 158 C6 156.68 6 155.36 6 154 C4.62328125 153.87044922 4.62328125 153.87044922 3.21875 153.73828125 C-10.71500546 152.1429248 -10.71500546 152.1429248 -16 147 C-18.2629029 143.26096508 -18.45922177 140.36260677 -18 136 C-15.45932299 131.70039275 -12.64913942 129.72190349 -8 128 C-5.45377235 127.62128893 -2.93566542 127.37896877 -0.3671875 127.2109375 C1.85584752 127.01284527 3.85557765 126.60280997 6 126 C6 124.68 6 123.36 6 122 C4.62328125 121.87044922 4.62328125 121.87044922 3.21875 121.73828125 C-10.71500546 120.1429248 -10.71500546 120.1429248 -16 115 C-18.2629029 111.26096508 -18.45922177 108.36260677 -18 104 C-15.45932299 99.70039275 -12.64913942 97.72190349 -8 96 C-5.45377235 95.62128893 -2.93566542 95.37896877 -0.3671875 95.2109375 C1.85584752 95.01284527 3.85557765 94.60280997 6 94 C6 92.68 6 91.36 6 90 C4.62328125 89.87044922 4.62328125 89.87044922 3.21875 89.73828125 C-10.71500546 88.1429248 -10.71500546 88.1429248 -16 83 C-18.2629029 79.26096508 -18.45922177 76.36260677 -18 72 C-15.45932299 67.70039275 -12.64913942 65.72190349 -8 64 C-5.45377235 63.62128893 -2.93566542 63.37896877 -0.3671875 63.2109375 C1.85584752 63.01284527 3.85557765 62.60280997 6 62 C6 60.68 6 59.36 6 58 C5.0821875 57.91363281 4.164375 57.82726562 3.21875 57.73828125 C-10.71500546 56.1429248 -10.71500546 56.1429248 -16 51 C-18.2629029 47.26096508 -18.45922177 44.36260677 -18 40 C-15.45932299 35.70039275 -12.64913942 33.72190349 -8 32 C-5.45377235 31.62128893 -2.93566542 31.37896877 -0.3671875 31.2109375 C1.85584752 31.01284527 3.85557765 30.60280997 6 30 C6 28.68 6 27.36 6 26 C5.0821875 25.91363281 4.164375 25.82726562 3.21875 25.73828125 C-10.71500546 24.1429248 -10.71500546 24.1429248 -16 19 C-18.2629029 15.26096508 -18.45922177 12.36260677 -18 8 C-13.76727224 0.83692225 -7.79910868 -0.64992572 0 0 Z " fill="#4C4D4D" transform="translate(35,9)"/>
</svg>
