<?xml version="1.0" encoding="UTF-8"?>
<svg version="1.1" xmlns="http://www.w3.org/2000/svg" width="85" height="270">
<path d="M0 0 C28.05 0 56.1 0 85 0 C85 89.1 85 178.2 85 270 C56.95 270 28.9 270 0 270 C0 180.9 0 91.8 0 0 Z " fill="#F6F6F6" transform="translate(0,0)"/>
<path d="M0 0 C1.67542976 0.28604898 3.34385343 0.61781233 5 1 C5.8586748 3.92990251 6.19145745 5.50479572 5.07421875 8.39453125 C4.38779297 9.59142578 4.38779297 9.59142578 3.6875 10.8125 C-3.29902312 24.06748692 -1.74800855 38.67109825 1 53 C1.66386719 52.51789062 2.32773437 52.03578125 3.01171875 51.5390625 C3.89472656 50.90742187 4.77773438 50.27578125 5.6875 49.625 C6.55761719 48.99851563 7.42773438 48.37203125 8.32421875 47.7265625 C14.45207422 43.77253021 19.8326173 43.2145334 27 44 C33.41757176 45.73768097 37.2360157 48.58927256 41 54 C42.60819739 57.21639478 42.46861231 60.51144167 42 64 C39.25456076 69.28751261 35.77868729 72.64454279 30.4375 75.25 C20.53542715 77.41045226 13.65337169 76.00811834 5 71 C4.01 70.67 3.02 70.34 2 70 C-2.89697715 84.60348542 -2.9272206 101.70493856 3 116 C4.13888672 115.25943359 4.13888672 115.25943359 5.30078125 114.50390625 C6.29464844 113.86324219 7.28851563 113.22257812 8.3125 112.5625 C9.29863281 111.92441406 10.28476562 111.28632812 11.30078125 110.62890625 C16.43124682 107.53280764 21.15320416 107.39924384 27 108 C33.40308827 109.76463063 37.23807459 112.59223223 41 118 C42.60819739 121.21639478 42.46861231 124.51144167 42 128 C39.2358759 133.32349826 35.7446358 136.72342521 30.3125 139.25 C23.19474855 140.86156637 17.24752731 140.80956839 10.828125 137.15625 C8.18100474 135.482003 5.56666769 133.79666739 3 132 C2.51801537 133.24891614 2.03954323 134.49918808 1.5625 135.75 C1.29566406 136.44609375 1.02882813 137.1421875 0.75390625 137.859375 C-1.16513147 143.30824894 -1.19200023 148.32771242 -1.1875 154.0625 C-1.18741943 155.00391846 -1.18733887 155.94533691 -1.18725586 156.9152832 C-1.17211716 167.76205179 -1.17211716 167.76205179 2 178 C3.99989484 177.00898068 5.98355678 176.00908355 7.9375 174.9296875 C14.95119936 171.34313669 21.9400663 170.6415261 29.58984375 172.6953125 C35.44500446 175.01399511 39.1516108 178.30322161 42 184 C42.50921186 190.11054235 42.08852244 193.13797331 38 198 C32.31380501 203.38692157 26.52226147 204.52202234 18.8828125 204.38671875 C12.02931501 203.46734714 6.06976617 199.56278955 1 195 C-2.96182332 210.1044514 -2.53101463 225.51014468 4.8125 239.4375 C6.2115176 242.45643271 6.00861057 243.88247643 5 247 C3.35 247.33 1.7 247.66 0 248 C-9.33909791 234.64202799 -11.36415014 219.95592118 -10 204 C-9.00888037 199.51743622 -7.58062715 195.30387632 -6 191 C-4.34245313 184.9913926 -5.69718424 181.24952936 -7.9921875 175.6484375 C-12.78407796 163.05579512 -11.71641231 144.83110713 -7.0703125 132.35546875 C-6 130 -6 130 -4.8046875 128.05078125 C-2.87543281 123.1339914 -5.67938605 118.25311246 -7.5625 113.6875 C-10.15480127 106.6236621 -10.49056363 99.79332327 -10.5 92.3125 C-10.50588135 91.28020264 -10.5117627 90.24790527 -10.51782227 89.18432617 C-10.38574166 80.91844575 -9.07455813 72.99270306 -5.88867188 65.32543945 C-3.96911717 60.30242886 -6.53773455 55.15585265 -8.28125 50.34375 C-12.55508416 36.40733427 -10.96253215 20.18473169 -4.65625 7.2421875 C-1.63052721 1.63052721 -1.63052721 1.63052721 0 0 Z " fill="#4B4C4C" transform="translate(28,10)"/>
<path d="M0 0 C4.07015093 1.82455042 5.51905219 2.81028699 7.1875 6.9375 C7 10 7 10 4.75 12.8125 C0.78023869 15.97026468 -2.58348117 16.45833212 -7.5078125 16.41796875 C-12.02055371 15.66112971 -15.74982534 13.16311641 -19 10 C-19.75 7.796875 -19.75 7.796875 -20 6 C-13.32761174 0.43967645 -8.7036426 -1.00620146 0 0 Z " fill="#F1F1F1" transform="translate(55,190)"/>
<path d="M0 0 C4.01462218 1.83123117 5.53286125 2.84444624 7.1875 6.9375 C7 10 7 10 4.75 12.8125 C0.50887296 16.18612378 -3.10829347 16.39769097 -8.3515625 16.3515625 C-12.55606199 15.7934431 -15.98863437 13.98777791 -19 11 C-19.71484375 8.828125 -19.71484375 8.828125 -20 7 C-18.70982586 6.01886757 -17.41780894 5.04015801 -16.125 4.0625 C-15.04605469 3.24458984 -15.04605469 3.24458984 -13.9453125 2.41015625 C-9.56316255 -0.76646249 -5.26530065 -0.57249058 0 0 Z " fill="#F1F1F1" transform="translate(55,62)"/>
<path d="M0 0 C3.96123241 1.83914362 5.54605437 2.87708186 7.1875 6.9375 C7 10 7 10 4.75 12.8125 C1.04685661 15.75818225 -2.0625746 16.46184996 -6.79296875 16.41796875 C-10.89670402 15.64080119 -14.2979093 13.13327539 -17 10 C-17 6 -17 6 -15.56640625 4.296875 C-10.45340312 0.34999539 -6.46600658 -1.38386857 0 0 Z " fill="#F1F1F1" transform="translate(55,126)"/>
</svg>
