<?xml version="1.0" encoding="UTF-8"?>
<svg version="1.1" xmlns="http://www.w3.org/2000/svg" width="49" height="265">
<path d="M0 0 C16.17 0 32.34 0 49 0 C49 87.45 49 174.9 49 265 C32.83 265 16.66 265 0 265 C0 177.55 0 90.1 0 0 Z " fill="#F6F6F6" transform="translate(0,0)"/>
<path d="M0 0 C4.55555556 0.55555556 4.55555556 0.55555556 6 2 C6.10251354 5.13044746 6.13884302 8.23897718 6.13371277 11.36997986 C6.13597833 12.36580993 6.13824388 13.36164 6.14057809 14.38764673 C6.14694963 17.75185088 6.14608672 21.11601507 6.14526367 24.48022461 C6.14825319 26.88103793 6.15165523 29.28185077 6.15544128 31.68266296 C6.16338406 37.54332166 6.16649684 43.40397085 6.16705366 49.26463383 C6.16752807 54.0262273 6.16957903 58.78781744 6.17275429 63.54940987 C6.18156519 77.03572901 6.18617298 90.52204018 6.18542381 104.00836223 C6.18538386 104.7360983 6.1853439 105.46383437 6.18530273 106.21362305 C6.18526185 106.94224293 6.18522097 107.67086281 6.18517885 108.42156208 C6.18477225 120.2345049 6.19434413 132.04741587 6.2084411 143.86034947 C6.22278622 155.97638602 6.22971232 168.09240702 6.22884732 180.20845228 C6.22851471 187.01608185 6.23128993 193.82367803 6.24202538 200.63129997 C6.25205237 207.03092468 6.25181414 213.43049694 6.24450874 219.83012581 C6.24345774 222.18523384 6.24585606 224.54034619 6.2518692 226.89544678 C6.25951959 230.09806154 6.25499082 233.30042758 6.24723816 236.5030365 C6.25238172 237.44592008 6.25752529 238.38880366 6.26282471 239.36025947 C6.25822592 240.21357339 6.25362712 241.06688731 6.24888897 241.94605923 C6.24910634 242.6859718 6.24932371 243.42588437 6.24954766 244.18821853 C6 246 6 246 4 248 C-0.55555556 247.44444444 -0.55555556 247.44444444 -2 246 C-2.10251354 242.86955254 -2.13884302 239.76102282 -2.13371277 236.63002014 C-2.13597833 235.63419007 -2.13824388 234.63836 -2.14057809 233.61235327 C-2.14694963 230.24814912 -2.14608672 226.88398493 -2.14526367 223.51977539 C-2.14825319 221.11896207 -2.15165523 218.71814923 -2.15544128 216.31733704 C-2.16338406 210.45667834 -2.16649684 204.59602915 -2.16705366 198.73536617 C-2.16752807 193.9737727 -2.16957903 189.21218256 -2.17275429 184.45059013 C-2.18156519 170.96427099 -2.18617298 157.47795982 -2.18542381 143.99163777 C-2.18538386 143.2639017 -2.1853439 142.53616563 -2.18530273 141.78637695 C-2.18526185 141.05775707 -2.18522097 140.32913719 -2.18517885 139.57843792 C-2.18477225 127.7654951 -2.19434413 115.95258413 -2.2084411 104.13965053 C-2.22278622 92.02361398 -2.22971232 79.90759298 -2.22884732 67.79154772 C-2.22851471 60.98391815 -2.23128993 54.17632197 -2.24202538 47.36870003 C-2.25205237 40.96907532 -2.25181414 34.56950306 -2.24450874 28.16987419 C-2.24345774 25.81476616 -2.24585606 23.45965381 -2.2518692 21.10455322 C-2.25951959 17.90193846 -2.25499082 14.69957242 -2.24723816 11.4969635 C-2.25238172 10.55407992 -2.25752529 9.61119634 -2.26282471 8.63974053 C-2.25822592 7.78642661 -2.25362712 6.93311269 -2.24888897 6.05394077 C-2.24910634 5.3140282 -2.24932371 4.57411563 -2.24954766 3.81178147 C-2 2 -2 2 0 0 Z " fill="#464747" transform="translate(21,8)"/>
</svg>
