<?xml version="1.0" encoding="UTF-8"?>
<svg version="1.1" xmlns="http://www.w3.org/2000/svg" width="57" height="259">
<path d="M0 0 C18.81 0 37.62 0 57 0 C57 85.47 57 170.94 57 259 C38.19 259 19.38 259 0 259 C0 173.53 0 88.06 0 0 Z " fill="#F6F6F6" transform="translate(0,0)"/>
<path d="M0 0 C4.55555556 0.55555556 4.55555556 0.55555556 6 2 C6.9920574 11.09385952 2.93541174 17.40738994 -2.3125 24.5625 C-4.92023176 28.38986858 -5.80597425 31.18926951 -5.453125 35.81640625 C-4.1015225 42.3297321 -0.01846422 47.65713346 3.73046875 53.01953125 C7.01960636 58.15058592 6.63069656 64.13738881 6 70 C4.16101195 75.46940412 1.05849116 79.93439337 -2.3125 84.5625 C-4.92023176 88.38986858 -5.80597425 91.18926951 -5.453125 95.81640625 C-4.1015225 102.3297321 -0.01846422 107.65713346 3.73046875 113.01953125 C7.01960636 118.15058592 6.63069656 124.13738881 6 130 C4.16101195 135.46940412 1.05849116 139.93439337 -2.3125 144.5625 C-4.92023176 148.38986858 -5.80597425 151.18926951 -5.453125 155.81640625 C-4.1015225 162.3297321 -0.01846422 167.65713346 3.73046875 173.01953125 C7.01960636 178.15058592 6.63069656 184.13738881 6 190 C4.16101195 195.46940412 1.05849116 199.93439337 -2.3125 204.5625 C-4.92023176 208.38986858 -5.80597425 211.18926951 -5.453125 215.81640625 C-4.1015225 222.3297321 -0.01846422 227.65713346 3.73046875 233.01953125 C6.48563375 237.31758866 6.23482432 241.06868931 6 246 C5.01 246.99 5.01 246.99 4 248 C-0.55555556 247.44444444 -0.55555556 247.44444444 -2 246 C-2.165 244.783125 -2.33 243.56625 -2.5 242.3125 C-3.78255586 236.0411048 -7.45976098 231.23690014 -11.00390625 226.0390625 C-14.76273015 220.31623473 -14.71740948 214.6686472 -14 208 C-12.16325183 202.5372576 -9.08043037 198.10181292 -5.6875 193.5 C-2.99773218 189.5073759 -2.04793108 186.42967646 -2.33984375 181.609375 C-3.65221157 176.42202764 -6.95147722 172.31493268 -10 168 C-14.23984997 161.58524141 -15.1364243 155.63874767 -14 148 C-12.12717194 142.54090543 -9.08681313 138.11046983 -5.6875 133.5 C-2.99773218 129.5073759 -2.04793108 126.42967646 -2.33984375 121.609375 C-3.65221157 116.42202764 -6.95147722 112.31493268 -10 108 C-14.23984997 101.58524141 -15.1364243 95.63874767 -14 88 C-12.12717194 82.54090543 -9.08681313 78.11046983 -5.6875 73.5 C-2.99773218 69.5073759 -2.04793108 66.42967646 -2.33984375 61.609375 C-3.65221157 56.42202764 -6.95147722 52.31493268 -10 48 C-14.23984997 41.58524141 -15.1364243 35.63874767 -14 28 C-12.12851513 22.54482069 -9.03341027 18.00761807 -5.75 13.3125 C-3.03677289 9.40877527 -2.3825309 6.68600355 -2 2 C-1.34 1.34 -0.68 0.68 0 0 Z " fill="#4B4C4C" transform="translate(29,5)"/>
</svg>
